<?xml version="1.0" encoding="iso-8859-1"?>
<!-- Generator: Adobe Illustrator 19.0.0, SVG Export Plug-In . SVG Version: 6.00 Build 0)  -->
<svg version="1.1" id="Capa_1" xmlns="http://www.w3.org/2000/svg" xmlns:xlink="http://www.w3.org/1999/xlink" x="0px" y="0px"
	 viewBox="0 0 384 384" style="enable-background:new 0 0 384 384;" xml:space="preserve">
<g>
	<g>
		<path d="M332.256,26.288c5.68-6.768,4.8-16.856-1.968-22.544c-6.768-5.672-16.856-4.808-22.544,1.968L192,143.56L76.256,5.712
			C70.576-1.056,60.48-1.92,53.712,3.744c-6.768,5.68-7.648,15.776-1.968,22.544L176,174.272v22.856h-52.496
			c-8.832,0-16,7.168-16,16c0,8.832,7.168,16,16,16H176v33.792h-52.496c-8.832,0-16,7.168-16,16c0,8.832,7.168,16,16,16H176V368
			c0,8.832,7.168,16,16,16c8.832,0,16-7.168,16-16v-73.08h51.784c8.832,0,16-7.168,16-16c0-8.832-7.168-16-16-16H208v-33.792h51.784
			c8.832,0,16-7.168,16-16c0-8.832-7.168-16-16-16H208v-22.856L332.256,26.288z"/>
	</g>
</g>
<g>
</g>
<g>
</g>
<g>
</g>
<g>
</g>
<g>
</g>
<g>
</g>
<g>
</g>
<g>
</g>
<g>
</g>
<g>
</g>
<g>
</g>
<g>
</g>
<g>
</g>
<g>
</g>
<g>
</g>
</svg>
